<?xml version="1.0" encoding="iso-8859-1"?>
<!-- Generator: Adobe Illustrator 19.0.0, SVG Export Plug-In . SVG Version: 6.00 Build 0)  -->
<svg version="1.1" id="Layer_1" xmlns="http://www.w3.org/2000/svg" xmlns:xlink="http://www.w3.org/1999/xlink" x="0px" y="0px"
	 viewBox="0 0 512 512" style="enable-background:new 0 0 512 512;" xml:space="preserve">
<path style="fill:#707487;" d="M264.828,512h-17.655c-4.875,0-8.828-3.953-8.828-8.828V8.828c0-4.875,3.953-8.828,8.828-8.828
	h17.655c4.875,0,8.828,3.953,8.828,8.828v494.345C273.655,508.047,269.703,512,264.828,512z"/>
<g>
	<polygon style="fill:#5B5D6E;" points="273.655,26.483 238.345,44.138 238.345,26.483 273.655,8.828 	"/>
	<polygon style="fill:#5B5D6E;" points="273.655,61.793 238.345,79.448 238.345,61.793 273.655,44.138 	"/>
	<polygon style="fill:#5B5D6E;" points="273.655,97.103 238.345,114.759 238.345,97.103 273.655,79.448 	"/>
	<polygon style="fill:#5B5D6E;" points="273.655,132.414 238.345,150.069 238.345,132.414 273.655,114.759 	"/>
	<polygon style="fill:#5B5D6E;" points="273.655,167.724 238.345,185.379 238.345,167.724 273.655,150.069 	"/>
	<polygon style="fill:#5B5D6E;" points="273.655,203.034 238.345,220.69 238.345,203.034 273.655,185.379 	"/>
	<polygon style="fill:#5B5D6E;" points="273.655,238.345 238.345,256 238.345,238.345 273.655,220.69 	"/>
	<polygon style="fill:#5B5D6E;" points="273.655,273.655 238.345,291.31 238.345,273.655 273.655,256 	"/>
	<polygon style="fill:#5B5D6E;" points="273.655,308.966 238.345,326.621 238.345,308.966 273.655,291.31 	"/>
	<polygon style="fill:#5B5D6E;" points="273.655,344.276 238.345,361.931 238.345,344.276 273.655,326.621 	"/>
	<polygon style="fill:#5B5D6E;" points="273.655,379.586 238.345,397.241 238.345,379.586 273.655,361.931 	"/>
	<polygon style="fill:#5B5D6E;" points="273.655,414.897 238.345,432.552 238.345,414.897 273.655,397.241 	"/>
	<polygon style="fill:#5B5D6E;" points="273.655,485.517 238.345,503.172 238.345,485.517 273.655,467.862 	"/>
	<polygon style="fill:#5B5D6E;" points="273.655,450.207 238.345,467.862 238.345,450.207 273.655,432.552 	"/>
</g>
<path style="fill:#707487;" d="M406.069,512h-17.655c-4.875,0-8.828-3.953-8.828-8.828V8.828c0-4.875,3.953-8.828,8.828-8.828
	h17.655c4.875,0,8.828,3.953,8.828,8.828v494.345C414.897,508.047,410.944,512,406.069,512z"/>
<g>
	<polygon style="fill:#5B5D6E;" points="414.897,26.483 379.586,44.138 379.586,26.483 414.897,8.828 	"/>
	<polygon style="fill:#5B5D6E;" points="414.897,61.793 379.586,79.448 379.586,61.793 414.897,44.138 	"/>
	<polygon style="fill:#5B5D6E;" points="414.897,97.103 379.586,114.759 379.586,97.103 414.897,79.448 	"/>
	<polygon style="fill:#5B5D6E;" points="414.897,132.414 379.586,150.069 379.586,132.414 414.897,114.759 	"/>
	<polygon style="fill:#5B5D6E;" points="414.897,167.724 379.586,185.379 379.586,167.724 414.897,150.069 	"/>
	<polygon style="fill:#5B5D6E;" points="414.897,203.034 379.586,220.69 379.586,203.034 414.897,185.379 	"/>
	<polygon style="fill:#5B5D6E;" points="414.897,238.345 379.586,256 379.586,238.345 414.897,220.69 	"/>
	<polygon style="fill:#5B5D6E;" points="414.897,273.655 379.586,291.31 379.586,273.655 414.897,256 	"/>
	<polygon style="fill:#5B5D6E;" points="414.897,308.966 379.586,326.621 379.586,308.966 414.897,291.31 	"/>
	<polygon style="fill:#5B5D6E;" points="414.897,344.276 379.586,361.931 379.586,344.276 414.897,326.621 	"/>
	<polygon style="fill:#5B5D6E;" points="414.897,379.586 379.586,397.241 379.586,379.586 414.897,361.931 	"/>
	<polygon style="fill:#5B5D6E;" points="414.897,414.897 379.586,432.552 379.586,414.897 414.897,397.241 	"/>
	<polygon style="fill:#5B5D6E;" points="414.897,485.517 379.586,503.172 379.586,485.517 414.897,467.862 	"/>
	<polygon style="fill:#5B5D6E;" points="414.897,450.207 379.586,467.862 379.586,450.207 414.897,432.552 	"/>
</g>
<path style="fill:#707487;" d="M123.586,512h-17.655c-4.875,0-8.828-3.953-8.828-8.828V8.828c0-4.875,3.953-8.828,8.828-8.828
	h17.655c4.875,0,8.828,3.953,8.828,8.828v494.345C132.414,508.047,128.461,512,123.586,512z"/>
<g>
	<polygon style="fill:#5B5D6E;" points="132.414,26.483 97.103,44.138 97.103,26.483 132.414,8.828 	"/>
	<polygon style="fill:#5B5D6E;" points="132.414,61.793 97.103,79.448 97.103,61.793 132.414,44.138 	"/>
	<polygon style="fill:#5B5D6E;" points="132.414,97.103 97.103,114.759 97.103,97.103 132.414,79.448 	"/>
	<polygon style="fill:#5B5D6E;" points="132.414,132.414 97.103,150.069 97.103,132.414 132.414,114.759 	"/>
	<polygon style="fill:#5B5D6E;" points="132.414,167.724 97.103,185.379 97.103,167.724 132.414,150.069 	"/>
	<polygon style="fill:#5B5D6E;" points="132.414,203.034 97.103,220.69 97.103,203.034 132.414,185.379 	"/>
	<polygon style="fill:#5B5D6E;" points="132.414,238.345 97.103,256 97.103,238.345 132.414,220.69 	"/>
	<polygon style="fill:#5B5D6E;" points="132.414,273.655 97.103,291.31 97.103,273.655 132.414,256 	"/>
	<polygon style="fill:#5B5D6E;" points="132.414,308.966 97.103,326.621 97.103,308.966 132.414,291.31 	"/>
	<polygon style="fill:#5B5D6E;" points="132.414,344.276 97.103,361.931 97.103,344.276 132.414,326.621 	"/>
	<polygon style="fill:#5B5D6E;" points="132.414,379.586 97.103,397.241 97.103,379.586 132.414,361.931 	"/>
	<polygon style="fill:#5B5D6E;" points="132.414,414.897 97.103,432.552 97.103,414.897 132.414,397.241 	"/>
	<polygon style="fill:#5B5D6E;" points="132.414,485.517 97.103,503.172 97.103,485.517 132.414,467.862 	"/>
	<polygon style="fill:#5B5D6E;" points="132.414,450.207 97.103,467.862 97.103,450.207 132.414,432.552 	"/>
</g>
<path style="fill:#707487;" d="M0,123.586v-17.655c0-4.875,3.953-8.828,8.828-8.828h494.345c4.875,0,8.828,3.953,8.828,8.828v17.655
	c0,4.875-3.953,8.828-8.828,8.828H8.828C3.953,132.414,0,128.461,0,123.586z"/>
<g>
	<polygon style="fill:#5B5D6E;" points="485.517,132.414 467.862,97.103 485.517,97.103 503.172,132.414 	"/>
	<polygon style="fill:#5B5D6E;" points="450.207,132.414 432.552,97.103 450.207,97.103 467.862,132.414 	"/>
	<polygon style="fill:#5B5D6E;" points="414.897,132.414 397.241,97.103 414.897,97.103 432.552,132.414 	"/>
	<polygon style="fill:#5B5D6E;" points="379.586,132.414 361.931,97.103 379.586,97.103 397.241,132.414 	"/>
	<polygon style="fill:#5B5D6E;" points="344.276,132.414 326.621,97.103 344.276,97.103 361.931,132.414 	"/>
	<polygon style="fill:#5B5D6E;" points="308.966,132.414 291.31,97.103 308.966,97.103 326.621,132.414 	"/>
	<polygon style="fill:#5B5D6E;" points="273.655,132.414 256,97.103 273.655,97.103 291.31,132.414 	"/>
	<polygon style="fill:#5B5D6E;" points="238.345,132.414 220.69,97.103 238.345,97.103 256,132.414 	"/>
	<polygon style="fill:#5B5D6E;" points="203.034,132.414 185.379,97.103 203.034,97.103 220.69,132.414 	"/>
	<polygon style="fill:#5B5D6E;" points="167.724,132.414 150.069,97.103 167.724,97.103 185.379,132.414 	"/>
	<polygon style="fill:#5B5D6E;" points="132.414,132.414 114.759,97.103 132.414,97.103 150.069,132.414 	"/>
	<polygon style="fill:#5B5D6E;" points="97.103,132.414 79.448,97.103 97.103,97.103 114.759,132.414 	"/>
	<polygon style="fill:#5B5D6E;" points="26.483,132.414 8.828,97.103 26.483,97.103 44.138,132.414 	"/>
	<polygon style="fill:#5B5D6E;" points="61.793,132.414 44.138,97.103 61.793,97.103 79.448,132.414 	"/>
</g>
<path style="fill:#707487;" d="M0,264.828v-17.655c0-4.875,3.953-8.828,8.828-8.828h494.345c4.875,0,8.828,3.953,8.828,8.828v17.655
	c0,4.875-3.953,8.828-8.828,8.828H8.828C3.953,273.655,0,269.703,0,264.828z"/>
<g>
	<polygon style="fill:#5B5D6E;" points="485.517,273.655 467.862,238.345 485.517,238.345 503.172,273.655 	"/>
	<polygon style="fill:#5B5D6E;" points="450.207,273.655 432.552,238.345 450.207,238.345 467.862,273.655 	"/>
	<polygon style="fill:#5B5D6E;" points="414.897,273.655 397.241,238.345 414.897,238.345 432.552,273.655 	"/>
	<polygon style="fill:#5B5D6E;" points="379.586,273.655 361.931,238.345 379.586,238.345 397.241,273.655 	"/>
	<polygon style="fill:#5B5D6E;" points="344.276,273.655 326.621,238.345 344.276,238.345 361.931,273.655 	"/>
	<polygon style="fill:#5B5D6E;" points="308.966,273.655 291.31,238.345 308.966,238.345 326.621,273.655 	"/>
	<polygon style="fill:#5B5D6E;" points="273.655,273.655 256,238.345 273.655,238.345 291.31,273.655 	"/>
	<polygon style="fill:#5B5D6E;" points="238.345,273.655 220.69,238.345 238.345,238.345 256,273.655 	"/>
	<polygon style="fill:#5B5D6E;" points="203.034,273.655 185.379,238.345 203.034,238.345 220.69,273.655 	"/>
	<polygon style="fill:#5B5D6E;" points="167.724,273.655 150.069,238.345 167.724,238.345 185.379,273.655 	"/>
	<polygon style="fill:#5B5D6E;" points="132.414,273.655 114.759,238.345 132.414,238.345 150.069,273.655 	"/>
	<polygon style="fill:#5B5D6E;" points="97.103,273.655 79.448,238.345 97.103,238.345 114.759,273.655 	"/>
	<polygon style="fill:#5B5D6E;" points="26.483,273.655 8.828,238.345 26.483,238.345 44.138,273.655 	"/>
	<polygon style="fill:#5B5D6E;" points="61.793,273.655 44.138,238.345 61.793,238.345 79.448,273.655 	"/>
</g>
<path style="fill:#707487;" d="M0,406.069v-17.655c0-4.875,3.953-8.828,8.828-8.828h494.345c4.875,0,8.828,3.953,8.828,8.828v17.655
	c0,4.875-3.953,8.828-8.828,8.828H8.828C3.953,414.897,0,410.944,0,406.069z"/>
<g>
	<polygon style="fill:#5B5D6E;" points="485.517,414.897 467.862,379.586 485.517,379.586 503.172,414.897 	"/>
	<polygon style="fill:#5B5D6E;" points="450.207,414.897 432.552,379.586 450.207,379.586 467.862,414.897 	"/>
	<polygon style="fill:#5B5D6E;" points="414.897,414.897 397.241,379.586 414.897,379.586 432.552,414.897 	"/>
	<polygon style="fill:#5B5D6E;" points="379.586,414.897 361.931,379.586 379.586,379.586 397.241,414.897 	"/>
	<polygon style="fill:#5B5D6E;" points="344.276,414.897 326.621,379.586 344.276,379.586 361.931,414.897 	"/>
	<polygon style="fill:#5B5D6E;" points="308.966,414.897 291.31,379.586 308.966,379.586 326.621,414.897 	"/>
	<polygon style="fill:#5B5D6E;" points="273.655,414.897 256,379.586 273.655,379.586 291.31,414.897 	"/>
	<polygon style="fill:#5B5D6E;" points="238.345,414.897 220.69,379.586 238.345,379.586 256,414.897 	"/>
	<polygon style="fill:#5B5D6E;" points="203.034,414.897 185.379,379.586 203.034,379.586 220.69,414.897 	"/>
	<polygon style="fill:#5B5D6E;" points="167.724,414.897 150.069,379.586 167.724,379.586 185.379,414.897 	"/>
	<polygon style="fill:#5B5D6E;" points="132.414,414.897 114.759,379.586 132.414,379.586 150.069,414.897 	"/>
	<polygon style="fill:#5B5D6E;" points="97.103,414.897 79.448,379.586 97.103,379.586 114.759,414.897 	"/>
	<polygon style="fill:#5B5D6E;" points="26.483,414.897 8.828,379.586 26.483,379.586 44.138,414.897 	"/>
	<polygon style="fill:#5B5D6E;" points="61.793,414.897 44.138,379.586 61.793,379.586 79.448,414.897 	"/>
</g>
<polygon style="fill:#464655;" points="97.103,150.069 132.414,132.414 97.103,132.414 "/>
<polygon style="fill:#5B5D6E;" points="132.414,132.414 97.103,150.069 132.414,150.069 "/>
<g>
	<path style="fill:#464655;" d="M141.241,150.069c-2.259,0-4.518-0.862-6.241-2.586L82.035,94.517
		c-3.448-3.448-3.448-9.035,0-12.483c3.448-3.448,9.035-3.448,12.483,0l52.966,52.966c3.448,3.448,3.448,9.035,0,12.483
		C145.759,149.207,143.5,150.069,141.241,150.069z"/>
	<polygon style="fill:#464655;" points="238.345,150.069 273.655,132.414 238.345,132.414 	"/>
</g>
<polygon style="fill:#5B5D6E;" points="273.655,132.414 238.345,150.069 273.655,150.069 "/>
<polygon style="fill:#464655;" points="379.586,150.069 414.897,132.414 379.586,132.414 "/>
<polygon style="fill:#5B5D6E;" points="414.897,132.414 379.586,150.069 414.897,150.069 "/>
<polygon style="fill:#464655;" points="97.103,291.31 132.414,273.655 97.103,273.655 "/>
<polygon style="fill:#5B5D6E;" points="132.414,273.655 97.103,291.31 132.414,291.31 "/>
<polygon style="fill:#464655;" points="238.345,291.31 273.655,273.655 238.345,273.655 "/>
<polygon style="fill:#5B5D6E;" points="273.655,273.655 238.345,291.31 273.655,291.31 "/>
<polygon style="fill:#464655;" points="379.586,291.31 414.897,273.655 379.586,273.655 "/>
<polygon style="fill:#5B5D6E;" points="414.897,273.655 379.586,291.31 414.897,291.31 "/>
<polygon style="fill:#464655;" points="97.103,432.552 132.414,414.897 97.103,414.897 "/>
<polygon style="fill:#5B5D6E;" points="132.414,414.897 97.103,432.552 132.414,432.552 "/>
<polygon style="fill:#464655;" points="238.345,432.552 273.655,414.897 238.345,414.897 "/>
<polygon style="fill:#5B5D6E;" points="273.655,414.897 238.345,432.552 273.655,432.552 "/>
<polygon style="fill:#464655;" points="379.586,432.552 414.897,414.897 379.586,414.897 "/>
<polygon style="fill:#5B5D6E;" points="414.897,414.897 379.586,432.552 414.897,432.552 "/>
<g>
	<path style="fill:#464655;" d="M282.483,150.069c-2.259,0-4.518-0.862-6.241-2.586l-52.966-52.966
		c-3.448-3.448-3.448-9.035,0-12.483c3.448-3.448,9.035-3.448,12.483,0l52.965,52.966c3.448,3.448,3.448,9.035,0,12.483
		C287,149.207,284.742,150.069,282.483,150.069z"/>
	<path style="fill:#464655;" d="M423.724,150.069c-2.259,0-4.517-0.862-6.241-2.586l-52.966-52.966
		c-3.448-3.448-3.448-9.035,0-12.483c3.448-3.448,9.035-3.448,12.483,0l52.966,52.966c3.448,3.448,3.448,9.035,0,12.483
		C428.242,149.207,425.983,150.069,423.724,150.069z"/>
	<path style="fill:#464655;" d="M141.241,291.31c-2.259,0-4.518-0.862-6.241-2.586l-52.966-52.966
		c-3.448-3.448-3.448-9.035,0-12.483c3.448-3.448,9.035-3.448,12.483,0l52.966,52.965c3.448,3.448,3.448,9.035,0,12.483
		C145.759,290.449,143.5,291.31,141.241,291.31z"/>
	<path style="fill:#464655;" d="M282.483,291.31c-2.259,0-4.518-0.862-6.241-2.586l-52.966-52.966
		c-3.448-3.448-3.448-9.035,0-12.483c3.448-3.448,9.035-3.448,12.483,0l52.965,52.965c3.448,3.448,3.448,9.035,0,12.483
		C287,290.449,284.742,291.31,282.483,291.31z"/>
	<path style="fill:#464655;" d="M423.724,291.31c-2.259,0-4.517-0.862-6.241-2.586l-52.966-52.966
		c-3.448-3.448-3.448-9.035,0-12.483s9.035-3.448,12.483,0l52.966,52.965c3.448,3.448,3.448,9.035,0,12.483
		C428.242,290.449,425.983,291.31,423.724,291.31z"/>
	<path style="fill:#464655;" d="M141.241,441.379c-2.259,0-4.518-0.862-6.241-2.586l-52.966-52.966
		c-3.448-3.448-3.448-9.035,0-12.483c3.448-3.448,9.035-3.448,12.483,0l52.966,52.966c3.448,3.448,3.448,9.035,0,12.483
		C145.759,440.518,143.5,441.379,141.241,441.379z"/>
	<path style="fill:#464655;" d="M282.483,441.379c-2.259,0-4.518-0.862-6.241-2.586l-52.966-52.966
		c-3.448-3.448-3.448-9.035,0-12.483c3.448-3.448,9.035-3.448,12.483,0l52.965,52.966c3.448,3.448,3.448,9.035,0,12.483
		C287,440.518,284.742,441.379,282.483,441.379z"/>
	<path style="fill:#464655;" d="M423.724,441.379c-2.259,0-4.517-0.862-6.241-2.586l-52.966-52.966
		c-3.448-3.448-3.448-9.035,0-12.483s9.035-3.448,12.483,0l52.966,52.966c3.448,3.448,3.448,9.035,0,12.483
		C428.242,440.518,425.983,441.379,423.724,441.379z"/>
</g>
<g>
</g>
<g>
</g>
<g>
</g>
<g>
</g>
<g>
</g>
<g>
</g>
<g>
</g>
<g>
</g>
<g>
</g>
<g>
</g>
<g>
</g>
<g>
</g>
<g>
</g>
<g>
</g>
<g>
</g>
</svg>
